<mxfile host="app.diagrams.net" modified="2022-09-07T09:58:38.475Z" agent="5.0 (Macintosh; Intel Mac OS X 10_15_7) AppleWebKit/537.36 (KHTML, like Gecko) Chrome/104.0.0.0 Safari/537.36" etag="lML20eCXxrMLrR_HRc2G" version="20.2.8" type="github" pages="3">
  <diagram id="YR7lYNTkskZ-sZWsTNC7" name="Trang-1">
    <mxGraphModel dx="2102" dy="1309" grid="1" gridSize="10" guides="1" tooltips="1" connect="1" arrows="1" fold="1" page="1" pageScale="1" pageWidth="827" pageHeight="1169" math="0" shadow="0">
      <root>
        <mxCell id="0" />
        <mxCell id="1" parent="0" />
        <mxCell id="mih9e1IvJ3BffF4qLFvo-1" value="Research" style="swimlane;" parent="1" vertex="1">
          <mxGeometry x="120" y="80" width="600" height="1240" as="geometry" />
        </mxCell>
        <mxCell id="mih9e1IvJ3BffF4qLFvo-2" value="User" style="swimlane;" parent="mih9e1IvJ3BffF4qLFvo-1" vertex="1">
          <mxGeometry y="20" width="200" height="1220" as="geometry" />
        </mxCell>
        <mxCell id="mih9e1IvJ3BffF4qLFvo-5" value="" style="ellipse;whiteSpace=wrap;html=1;aspect=fixed;fillColor=#171717;" parent="mih9e1IvJ3BffF4qLFvo-2" vertex="1">
          <mxGeometry x="80" y="60" width="30" height="30" as="geometry" />
        </mxCell>
        <mxCell id="mih9e1IvJ3BffF4qLFvo-9" value="Click to Input and enter information" style="html=1;verticalAlign=middle;whiteSpace=wrap;" parent="mih9e1IvJ3BffF4qLFvo-2" vertex="1">
          <mxGeometry x="40" y="140" width="120" height="50" as="geometry" />
        </mxCell>
        <mxCell id="mih9e1IvJ3BffF4qLFvo-10" value="Click Enter" style="html=1;verticalAlign=middle;whiteSpace=wrap;" parent="mih9e1IvJ3BffF4qLFvo-2" vertex="1">
          <mxGeometry x="40" y="240" width="120" height="50" as="geometry" />
        </mxCell>
        <mxCell id="mih9e1IvJ3BffF4qLFvo-13" value="Click to account want to contact" style="html=1;verticalAlign=middle;whiteSpace=wrap;" parent="mih9e1IvJ3BffF4qLFvo-2" vertex="1">
          <mxGeometry x="40" y="780" width="120" height="50" as="geometry" />
        </mxCell>
        <mxCell id="mih9e1IvJ3BffF4qLFvo-16" value="Contact like, command or share of any posts in this page&amp;nbsp;" style="html=1;verticalAlign=middle;whiteSpace=wrap;" parent="mih9e1IvJ3BffF4qLFvo-2" vertex="1">
          <mxGeometry x="40" y="960" width="120" height="70" as="geometry" />
        </mxCell>
        <mxCell id="mih9e1IvJ3BffF4qLFvo-20" value="Click to button &quot;See More&quot;" style="html=1;verticalAlign=middle;whiteSpace=wrap;" parent="mih9e1IvJ3BffF4qLFvo-2" vertex="1">
          <mxGeometry x="40" y="580" width="120" height="50" as="geometry" />
        </mxCell>
        <mxCell id="mih9e1IvJ3BffF4qLFvo-28" value="" style="endArrow=classic;html=1;rounded=0;exitX=0.5;exitY=1;exitDx=0;exitDy=0;entryX=0.5;entryY=0;entryDx=0;entryDy=0;" parent="mih9e1IvJ3BffF4qLFvo-2" source="mih9e1IvJ3BffF4qLFvo-9" target="mih9e1IvJ3BffF4qLFvo-10" edge="1">
          <mxGeometry width="50" height="50" relative="1" as="geometry">
            <mxPoint x="190" y="380" as="sourcePoint" />
            <mxPoint x="240" y="330" as="targetPoint" />
          </mxGeometry>
        </mxCell>
        <mxCell id="mih9e1IvJ3BffF4qLFvo-3" value="FE" style="swimlane;" parent="mih9e1IvJ3BffF4qLFvo-1" vertex="1">
          <mxGeometry x="200" y="20" width="200" height="1220" as="geometry" />
        </mxCell>
        <mxCell id="mih9e1IvJ3BffF4qLFvo-6" value="Space" style="html=1;" parent="mih9e1IvJ3BffF4qLFvo-3" vertex="1">
          <mxGeometry x="45" y="50" width="110" height="50" as="geometry" />
        </mxCell>
        <mxCell id="mih9e1IvJ3BffF4qLFvo-12" value="Show data related to word search (Maximum 5 acc)" style="html=1;verticalAlign=middle;whiteSpace=wrap;" parent="mih9e1IvJ3BffF4qLFvo-3" vertex="1">
          <mxGeometry x="40" y="340" width="120" height="50" as="geometry" />
        </mxCell>
        <mxCell id="mih9e1IvJ3BffF4qLFvo-15" value="Show profile of account" style="html=1;verticalAlign=middle;whiteSpace=wrap;" parent="mih9e1IvJ3BffF4qLFvo-3" vertex="1">
          <mxGeometry x="40" y="890" width="120" height="50" as="geometry" />
        </mxCell>
        <mxCell id="mih9e1IvJ3BffF4qLFvo-22" value="Show more 5 accounts&amp;nbsp;" style="html=1;verticalAlign=middle;whiteSpace=wrap;" parent="mih9e1IvJ3BffF4qLFvo-3" vertex="1">
          <mxGeometry x="40" y="660" width="120" height="50" as="geometry" />
        </mxCell>
        <mxCell id="mih9e1IvJ3BffF4qLFvo-4" value="Logic" style="swimlane;" parent="mih9e1IvJ3BffF4qLFvo-1" vertex="1">
          <mxGeometry x="400" y="20" width="200" height="1220" as="geometry" />
        </mxCell>
        <mxCell id="mih9e1IvJ3BffF4qLFvo-11" value="Redirect" style="html=1;verticalAlign=middle;whiteSpace=wrap;" parent="mih9e1IvJ3BffF4qLFvo-4" vertex="1">
          <mxGeometry x="40" y="240" width="120" height="50" as="geometry" />
        </mxCell>
        <mxCell id="mih9e1IvJ3BffF4qLFvo-14" value="Redirect" style="html=1;verticalAlign=middle;whiteSpace=wrap;" parent="mih9e1IvJ3BffF4qLFvo-4" vertex="1">
          <mxGeometry x="40" y="580" width="120" height="50" as="geometry" />
        </mxCell>
        <mxCell id="mih9e1IvJ3BffF4qLFvo-21" value="Redirect" style="html=1;verticalAlign=middle;whiteSpace=wrap;" parent="mih9e1IvJ3BffF4qLFvo-4" vertex="1">
          <mxGeometry x="40" y="780" width="120" height="50" as="geometry" />
        </mxCell>
        <mxCell id="mih9e1IvJ3BffF4qLFvo-19" value="Want to see more accounts" style="shape=rhombus;perimeter=rhombusPerimeter;whiteSpace=wrap;html=1;align=center;" parent="mih9e1IvJ3BffF4qLFvo-4" vertex="1">
          <mxGeometry x="30" y="430" width="140" height="70" as="geometry" />
        </mxCell>
        <mxCell id="mih9e1IvJ3BffF4qLFvo-24" value="" style="endArrow=classic;html=1;rounded=0;exitX=1;exitY=0.5;exitDx=0;exitDy=0;entryX=0;entryY=0.5;entryDx=0;entryDy=0;" parent="mih9e1IvJ3BffF4qLFvo-1" source="mih9e1IvJ3BffF4qLFvo-5" target="mih9e1IvJ3BffF4qLFvo-6" edge="1">
          <mxGeometry width="50" height="50" relative="1" as="geometry">
            <mxPoint x="110" y="120" as="sourcePoint" />
            <mxPoint x="160" y="70" as="targetPoint" />
          </mxGeometry>
        </mxCell>
        <mxCell id="mih9e1IvJ3BffF4qLFvo-25" value="" style="endArrow=classic;html=1;rounded=0;exitX=0.5;exitY=1;exitDx=0;exitDy=0;entryX=0.5;entryY=0;entryDx=0;entryDy=0;" parent="mih9e1IvJ3BffF4qLFvo-1" source="mih9e1IvJ3BffF4qLFvo-6" target="mih9e1IvJ3BffF4qLFvo-9" edge="1">
          <mxGeometry width="50" height="50" relative="1" as="geometry">
            <mxPoint x="270" y="210" as="sourcePoint" />
            <mxPoint x="320" y="160" as="targetPoint" />
            <Array as="points">
              <mxPoint x="300" y="140" />
              <mxPoint x="100" y="140" />
            </Array>
          </mxGeometry>
        </mxCell>
        <mxCell id="mih9e1IvJ3BffF4qLFvo-30" value="" style="endArrow=classic;html=1;rounded=0;exitX=0.5;exitY=1;exitDx=0;exitDy=0;entryX=0.5;entryY=0;entryDx=0;entryDy=0;" parent="mih9e1IvJ3BffF4qLFvo-1" source="mih9e1IvJ3BffF4qLFvo-11" target="mih9e1IvJ3BffF4qLFvo-12" edge="1">
          <mxGeometry width="50" height="50" relative="1" as="geometry">
            <mxPoint x="470" y="410" as="sourcePoint" />
            <mxPoint x="520" y="360" as="targetPoint" />
            <Array as="points">
              <mxPoint x="500" y="340" />
              <mxPoint x="300" y="340" />
            </Array>
          </mxGeometry>
        </mxCell>
        <mxCell id="mih9e1IvJ3BffF4qLFvo-31" value="" style="endArrow=classic;html=1;rounded=0;exitX=0.5;exitY=1;exitDx=0;exitDy=0;entryX=0.5;entryY=0;entryDx=0;entryDy=0;" parent="mih9e1IvJ3BffF4qLFvo-1" source="mih9e1IvJ3BffF4qLFvo-12" target="mih9e1IvJ3BffF4qLFvo-19" edge="1">
          <mxGeometry width="50" height="50" relative="1" as="geometry">
            <mxPoint x="270" y="480" as="sourcePoint" />
            <mxPoint x="320" y="430" as="targetPoint" />
            <Array as="points">
              <mxPoint x="300" y="430" />
              <mxPoint x="500" y="430" />
            </Array>
          </mxGeometry>
        </mxCell>
        <mxCell id="mih9e1IvJ3BffF4qLFvo-34" value="No" style="html=1;verticalAlign=bottom;endArrow=block;rounded=0;entryX=0;entryY=0.5;entryDx=0;entryDy=0;exitX=0;exitY=0.5;exitDx=0;exitDy=0;" parent="mih9e1IvJ3BffF4qLFvo-1" source="mih9e1IvJ3BffF4qLFvo-19" target="mih9e1IvJ3BffF4qLFvo-13" edge="1">
          <mxGeometry width="80" relative="1" as="geometry">
            <mxPoint x="300" y="470" as="sourcePoint" />
            <mxPoint x="380" y="470" as="targetPoint" />
            <Array as="points">
              <mxPoint x="20" y="485" />
              <mxPoint x="20" y="825" />
            </Array>
          </mxGeometry>
        </mxCell>
        <mxCell id="mih9e1IvJ3BffF4qLFvo-35" value="Yes" style="html=1;verticalAlign=bottom;endArrow=block;rounded=0;exitX=0.5;exitY=1;exitDx=0;exitDy=0;entryX=0.5;entryY=0;entryDx=0;entryDy=0;" parent="mih9e1IvJ3BffF4qLFvo-1" source="mih9e1IvJ3BffF4qLFvo-19" target="mih9e1IvJ3BffF4qLFvo-20" edge="1">
          <mxGeometry width="80" relative="1" as="geometry">
            <mxPoint x="290" y="550" as="sourcePoint" />
            <mxPoint x="370" y="550" as="targetPoint" />
            <Array as="points">
              <mxPoint x="500" y="560" />
              <mxPoint x="100" y="560" />
            </Array>
          </mxGeometry>
        </mxCell>
        <mxCell id="mih9e1IvJ3BffF4qLFvo-36" value="" style="endArrow=classic;html=1;rounded=0;exitX=1;exitY=0.5;exitDx=0;exitDy=0;entryX=0;entryY=0.5;entryDx=0;entryDy=0;" parent="mih9e1IvJ3BffF4qLFvo-1" source="mih9e1IvJ3BffF4qLFvo-20" target="mih9e1IvJ3BffF4qLFvo-14" edge="1">
          <mxGeometry width="50" height="50" relative="1" as="geometry">
            <mxPoint x="160" y="660" as="sourcePoint" />
            <mxPoint x="210" y="610" as="targetPoint" />
          </mxGeometry>
        </mxCell>
        <mxCell id="mih9e1IvJ3BffF4qLFvo-37" value="" style="endArrow=classic;html=1;rounded=0;exitX=0.5;exitY=1;exitDx=0;exitDy=0;entryX=1;entryY=0.5;entryDx=0;entryDy=0;" parent="mih9e1IvJ3BffF4qLFvo-1" source="mih9e1IvJ3BffF4qLFvo-14" target="mih9e1IvJ3BffF4qLFvo-22" edge="1">
          <mxGeometry width="50" height="50" relative="1" as="geometry">
            <mxPoint x="490" y="740" as="sourcePoint" />
            <mxPoint x="540" y="690" as="targetPoint" />
            <Array as="points">
              <mxPoint x="500" y="705" />
            </Array>
          </mxGeometry>
        </mxCell>
        <mxCell id="mih9e1IvJ3BffF4qLFvo-38" value="" style="endArrow=classic;html=1;rounded=0;exitX=1;exitY=0.5;exitDx=0;exitDy=0;entryX=0;entryY=0.5;entryDx=0;entryDy=0;" parent="mih9e1IvJ3BffF4qLFvo-1" source="mih9e1IvJ3BffF4qLFvo-13" target="mih9e1IvJ3BffF4qLFvo-21" edge="1">
          <mxGeometry width="50" height="50" relative="1" as="geometry">
            <mxPoint x="270" y="850" as="sourcePoint" />
            <mxPoint x="320" y="800" as="targetPoint" />
          </mxGeometry>
        </mxCell>
        <mxCell id="mih9e1IvJ3BffF4qLFvo-39" value="" style="endArrow=classic;html=1;rounded=0;exitX=0.5;exitY=1;exitDx=0;exitDy=0;entryX=0.5;entryY=0;entryDx=0;entryDy=0;" parent="mih9e1IvJ3BffF4qLFvo-1" source="mih9e1IvJ3BffF4qLFvo-21" target="mih9e1IvJ3BffF4qLFvo-15" edge="1">
          <mxGeometry width="50" height="50" relative="1" as="geometry">
            <mxPoint x="500" y="930" as="sourcePoint" />
            <mxPoint x="550" y="880" as="targetPoint" />
            <Array as="points">
              <mxPoint x="500" y="880" />
              <mxPoint x="300" y="880" />
            </Array>
          </mxGeometry>
        </mxCell>
        <mxCell id="mih9e1IvJ3BffF4qLFvo-40" value="" style="endArrow=classic;html=1;rounded=0;exitX=0.5;exitY=1;exitDx=0;exitDy=0;entryX=1;entryY=0.5;entryDx=0;entryDy=0;" parent="mih9e1IvJ3BffF4qLFvo-1" source="mih9e1IvJ3BffF4qLFvo-15" target="mih9e1IvJ3BffF4qLFvo-16" edge="1">
          <mxGeometry width="50" height="50" relative="1" as="geometry">
            <mxPoint x="290" y="1050" as="sourcePoint" />
            <mxPoint x="340" y="1000" as="targetPoint" />
            <Array as="points">
              <mxPoint x="300" y="1015" />
            </Array>
          </mxGeometry>
        </mxCell>
        <mxCell id="mih9e1IvJ3BffF4qLFvo-27" value="" style="endArrow=classic;html=1;rounded=0;exitX=1;exitY=0.5;exitDx=0;exitDy=0;" parent="1" source="mih9e1IvJ3BffF4qLFvo-10" edge="1">
          <mxGeometry width="50" height="50" relative="1" as="geometry">
            <mxPoint x="310" y="480" as="sourcePoint" />
            <mxPoint x="560" y="365" as="targetPoint" />
          </mxGeometry>
        </mxCell>
        <mxCell id="mih9e1IvJ3BffF4qLFvo-41" value="" style="ellipse;html=1;shape=endState;fillColor=#000000;strokeColor=#ff0000;" parent="1" vertex="1">
          <mxGeometry x="205" y="1220" width="30" height="30" as="geometry" />
        </mxCell>
        <mxCell id="mih9e1IvJ3BffF4qLFvo-42" value="" style="endArrow=classic;html=1;rounded=0;exitX=0.5;exitY=1;exitDx=0;exitDy=0;entryX=0.5;entryY=0;entryDx=0;entryDy=0;" parent="1" source="mih9e1IvJ3BffF4qLFvo-16" target="mih9e1IvJ3BffF4qLFvo-41" edge="1">
          <mxGeometry width="50" height="50" relative="1" as="geometry">
            <mxPoint x="200" y="1190" as="sourcePoint" />
            <mxPoint x="250" y="1140" as="targetPoint" />
          </mxGeometry>
        </mxCell>
      </root>
    </mxGraphModel>
  </diagram>
  <diagram id="9z_vKv0WVzLzev7fLpFQ" name="Trang-2">
    <mxGraphModel dx="2282" dy="906" grid="1" gridSize="10" guides="1" tooltips="1" connect="1" arrows="1" fold="1" page="1" pageScale="1" pageWidth="827" pageHeight="1169" math="0" shadow="0">
      <root>
        <mxCell id="0" />
        <mxCell id="1" parent="0" />
        <mxCell id="2DOLUK-kXM4U_X514kG_-60" value="false" style="shape=umlFrame;whiteSpace=wrap;html=1;strokeColor=#171717;fillColor=#FFFFFF;" vertex="1" parent="1">
          <mxGeometry x="-720" y="510" width="600" height="40" as="geometry" />
        </mxCell>
        <mxCell id="2DOLUK-kXM4U_X514kG_-1" value="User" style="shape=umlLifeline;participant=umlActor;perimeter=lifelinePerimeter;whiteSpace=wrap;html=1;container=1;collapsible=0;recursiveResize=0;verticalAlign=top;spacingTop=36;outlineConnect=0;fillColor=#3399FF;" vertex="1" parent="1">
          <mxGeometry x="-640" y="160" width="20" height="870" as="geometry" />
        </mxCell>
        <mxCell id="2DOLUK-kXM4U_X514kG_-9" value="Vào hệ thống" style="html=1;verticalAlign=bottom;endArrow=block;rounded=0;" edge="1" parent="2DOLUK-kXM4U_X514kG_-1" target="2DOLUK-kXM4U_X514kG_-8">
          <mxGeometry width="80" relative="1" as="geometry">
            <mxPoint x="10" y="110" as="sourcePoint" />
            <mxPoint x="90" y="110" as="targetPoint" />
          </mxGeometry>
        </mxCell>
        <mxCell id="2DOLUK-kXM4U_X514kG_-10" value="return" style="html=1;verticalAlign=bottom;endArrow=open;dashed=1;endSize=8;rounded=0;exitX=-0.176;exitY=0.421;exitDx=0;exitDy=0;exitPerimeter=0;" edge="1" parent="2DOLUK-kXM4U_X514kG_-1" source="2DOLUK-kXM4U_X514kG_-8">
          <mxGeometry relative="1" as="geometry">
            <mxPoint x="90" y="140" as="sourcePoint" />
            <mxPoint x="10" y="140" as="targetPoint" />
          </mxGeometry>
        </mxCell>
        <mxCell id="2DOLUK-kXM4U_X514kG_-11" value="Chọn ô tìm kiếm" style="html=1;verticalAlign=bottom;endArrow=block;rounded=0;entryX=-0.081;entryY=0.667;entryDx=0;entryDy=0;entryPerimeter=0;" edge="1" parent="2DOLUK-kXM4U_X514kG_-1" target="2DOLUK-kXM4U_X514kG_-8">
          <mxGeometry width="80" relative="1" as="geometry">
            <mxPoint x="10" y="170" as="sourcePoint" />
            <mxPoint x="90" y="170" as="targetPoint" />
          </mxGeometry>
        </mxCell>
        <mxCell id="2DOLUK-kXM4U_X514kG_-15" value="Nhập dữ liệu cần tìm kiếm và enter" style="html=1;verticalAlign=bottom;endArrow=block;rounded=0;" edge="1" parent="2DOLUK-kXM4U_X514kG_-1">
          <mxGeometry width="80" relative="1" as="geometry">
            <mxPoint x="10" y="270" as="sourcePoint" />
            <mxPoint x="280" y="270" as="targetPoint" />
          </mxGeometry>
        </mxCell>
        <mxCell id="2DOLUK-kXM4U_X514kG_-29" value="Thông báo lỗi" style="html=1;verticalAlign=bottom;endArrow=open;dashed=1;endSize=8;rounded=0;" edge="1" parent="2DOLUK-kXM4U_X514kG_-1" source="2DOLUK-kXM4U_X514kG_-2">
          <mxGeometry relative="1" as="geometry">
            <mxPoint x="90" y="580" as="sourcePoint" />
            <mxPoint x="10" y="580" as="targetPoint" />
          </mxGeometry>
        </mxCell>
        <mxCell id="2DOLUK-kXM4U_X514kG_-42" value="Chọn account&amp;nbsp;" style="html=1;verticalAlign=bottom;endArrow=block;rounded=0;" edge="1" parent="2DOLUK-kXM4U_X514kG_-1">
          <mxGeometry width="80" relative="1" as="geometry">
            <mxPoint x="10" y="750" as="sourcePoint" />
            <mxPoint x="130" y="750" as="targetPoint" />
          </mxGeometry>
        </mxCell>
        <mxCell id="2DOLUK-kXM4U_X514kG_-2" value="Space" style="shape=umlLifeline;participant=umlBoundary;perimeter=lifelinePerimeter;whiteSpace=wrap;html=1;container=1;collapsible=0;recursiveResize=0;verticalAlign=top;spacingTop=36;outlineConnect=0;fillColor=#3399FF;" vertex="1" parent="1">
          <mxGeometry x="-530" y="160" width="50" height="870" as="geometry" />
        </mxCell>
        <mxCell id="2DOLUK-kXM4U_X514kG_-8" value="" style="html=1;points=[];perimeter=orthogonalPerimeter;strokeColor=#171717;fillColor=#3399FF;" vertex="1" parent="2DOLUK-kXM4U_X514kG_-2">
          <mxGeometry x="20" y="90" width="10" height="120" as="geometry" />
        </mxCell>
        <mxCell id="2DOLUK-kXM4U_X514kG_-13" value="Gọi" style="html=1;verticalAlign=bottom;endArrow=block;rounded=0;entryX=-0.079;entryY=0.003;entryDx=0;entryDy=0;entryPerimeter=0;" edge="1" parent="2DOLUK-kXM4U_X514kG_-2" target="2DOLUK-kXM4U_X514kG_-12">
          <mxGeometry width="80" relative="1" as="geometry">
            <mxPoint x="30" y="200" as="sourcePoint" />
            <mxPoint x="110" y="200" as="targetPoint" />
          </mxGeometry>
        </mxCell>
        <mxCell id="2DOLUK-kXM4U_X514kG_-28" value="" style="html=1;points=[];perimeter=orthogonalPerimeter;fillColor=#3399FF;" vertex="1" parent="2DOLUK-kXM4U_X514kG_-2">
          <mxGeometry x="20" y="550" width="10" height="90" as="geometry" />
        </mxCell>
        <mxCell id="2DOLUK-kXM4U_X514kG_-40" value="" style="html=1;points=[];perimeter=orthogonalPerimeter;fillColor=#3399FF;" vertex="1" parent="2DOLUK-kXM4U_X514kG_-2">
          <mxGeometry x="20" y="670" width="10" height="160" as="geometry" />
        </mxCell>
        <mxCell id="2DOLUK-kXM4U_X514kG_-3" value="Logic" style="shape=umlLifeline;participant=umlControl;perimeter=lifelinePerimeter;whiteSpace=wrap;html=1;container=1;collapsible=0;recursiveResize=0;verticalAlign=top;spacingTop=36;outlineConnect=0;fillColor=#3399FF;" vertex="1" parent="1">
          <mxGeometry x="-240" y="160" width="40" height="870" as="geometry" />
        </mxCell>
        <mxCell id="2DOLUK-kXM4U_X514kG_-21" value="" style="html=1;points=[];perimeter=orthogonalPerimeter;fillColor=#3399FF;" vertex="1" parent="2DOLUK-kXM4U_X514kG_-3">
          <mxGeometry x="15" y="400" width="10" height="100" as="geometry" />
        </mxCell>
        <mxCell id="2DOLUK-kXM4U_X514kG_-23" value="" style="html=1;points=[];perimeter=orthogonalPerimeter;fillColor=#3399FF;" vertex="1" parent="2DOLUK-kXM4U_X514kG_-3">
          <mxGeometry x="10" y="450" width="10" height="30" as="geometry" />
        </mxCell>
        <mxCell id="2DOLUK-kXM4U_X514kG_-24" value="Kiểm tra dữ liệu" style="edgeStyle=orthogonalEdgeStyle;html=1;align=left;spacingLeft=2;endArrow=block;rounded=0;exitX=1.031;exitY=0.576;exitDx=0;exitDy=0;exitPerimeter=0;entryX=1.06;entryY=0.657;entryDx=0;entryDy=0;entryPerimeter=0;" edge="1" target="2DOLUK-kXM4U_X514kG_-23" parent="2DOLUK-kXM4U_X514kG_-3" source="2DOLUK-kXM4U_X514kG_-21">
          <mxGeometry relative="1" as="geometry">
            <mxPoint x="30" y="420" as="sourcePoint" />
            <Array as="points">
              <mxPoint x="25" y="450" />
              <mxPoint x="45" y="450" />
              <mxPoint x="45" y="470" />
            </Array>
          </mxGeometry>
        </mxCell>
        <mxCell id="2DOLUK-kXM4U_X514kG_-26" value="" style="html=1;points=[];perimeter=orthogonalPerimeter;fillColor=#3399FF;" vertex="1" parent="2DOLUK-kXM4U_X514kG_-3">
          <mxGeometry x="15" y="550" width="10" height="40" as="geometry" />
        </mxCell>
        <mxCell id="2DOLUK-kXM4U_X514kG_-31" value="" style="html=1;points=[];perimeter=orthogonalPerimeter;fillColor=#3399FF;" vertex="1" parent="2DOLUK-kXM4U_X514kG_-3">
          <mxGeometry x="15" y="670" width="10" height="90" as="geometry" />
        </mxCell>
        <mxCell id="2DOLUK-kXM4U_X514kG_-37" value="" style="html=1;points=[];perimeter=orthogonalPerimeter;fillColor=#3399FF;" vertex="1" parent="2DOLUK-kXM4U_X514kG_-3">
          <mxGeometry x="10" y="710" width="10" height="40" as="geometry" />
        </mxCell>
        <mxCell id="2DOLUK-kXM4U_X514kG_-38" value="Lưu dữ liệu" style="edgeStyle=orthogonalEdgeStyle;html=1;align=left;spacingLeft=2;endArrow=block;rounded=0;exitX=0.962;exitY=0.392;exitDx=0;exitDy=0;exitPerimeter=0;" edge="1" parent="2DOLUK-kXM4U_X514kG_-3" source="2DOLUK-kXM4U_X514kG_-31">
          <mxGeometry relative="1" as="geometry">
            <mxPoint x="30" y="690" as="sourcePoint" />
            <Array as="points">
              <mxPoint x="40" y="690" />
              <mxPoint x="40" y="710" />
            </Array>
            <mxPoint x="20" y="710" as="targetPoint" />
          </mxGeometry>
        </mxCell>
        <mxCell id="2DOLUK-kXM4U_X514kG_-4" value="Input search" style="shape=umlLifeline;participant=umlBoundary;perimeter=lifelinePerimeter;html=1;container=1;collapsible=0;recursiveResize=0;verticalAlign=top;spacingTop=36;outlineConnect=0;fillColor=#3399FF;" vertex="1" parent="1">
          <mxGeometry x="-380" y="160" width="50" height="870" as="geometry" />
        </mxCell>
        <mxCell id="2DOLUK-kXM4U_X514kG_-12" value="" style="html=1;points=[];perimeter=orthogonalPerimeter;fillColor=#3399FF;" vertex="1" parent="2DOLUK-kXM4U_X514kG_-4">
          <mxGeometry x="20" y="200" width="10" height="130" as="geometry" />
        </mxCell>
        <mxCell id="2DOLUK-kXM4U_X514kG_-17" value="" style="html=1;points=[];perimeter=orthogonalPerimeter;fillColor=#3399FF;" vertex="1" parent="2DOLUK-kXM4U_X514kG_-4">
          <mxGeometry x="15" y="300" width="10" height="20" as="geometry" />
        </mxCell>
        <mxCell id="2DOLUK-kXM4U_X514kG_-18" value="Kiểm tra format" style="edgeStyle=orthogonalEdgeStyle;html=1;align=left;spacingLeft=2;endArrow=block;rounded=0;entryX=1;entryY=0;" edge="1" target="2DOLUK-kXM4U_X514kG_-17" parent="2DOLUK-kXM4U_X514kG_-4">
          <mxGeometry relative="1" as="geometry">
            <mxPoint x="20" y="280" as="sourcePoint" />
            <Array as="points">
              <mxPoint x="50" y="280" />
            </Array>
          </mxGeometry>
        </mxCell>
        <mxCell id="2DOLUK-kXM4U_X514kG_-58" value="" style="html=1;points=[];perimeter=orthogonalPerimeter;strokeColor=#171717;fillColor=#3399FF;" vertex="1" parent="2DOLUK-kXM4U_X514kG_-4">
          <mxGeometry x="20" y="360" width="10" height="20" as="geometry" />
        </mxCell>
        <mxCell id="2DOLUK-kXM4U_X514kG_-59" value="" style="html=1;points=[];perimeter=orthogonalPerimeter;strokeColor=#171717;fillColor=#3399FF;" vertex="1" parent="2DOLUK-kXM4U_X514kG_-4">
          <mxGeometry x="20" y="420" width="10" height="30" as="geometry" />
        </mxCell>
        <mxCell id="2DOLUK-kXM4U_X514kG_-14" value="return" style="html=1;verticalAlign=bottom;endArrow=open;dashed=1;endSize=8;rounded=0;" edge="1" parent="1" target="2DOLUK-kXM4U_X514kG_-1">
          <mxGeometry relative="1" as="geometry">
            <mxPoint x="-360" y="390" as="sourcePoint" />
            <mxPoint x="-440" y="390" as="targetPoint" />
          </mxGeometry>
        </mxCell>
        <mxCell id="2DOLUK-kXM4U_X514kG_-19" value="Yêu cầu nhập lại" style="html=1;verticalAlign=bottom;endArrow=open;dashed=1;endSize=8;rounded=0;exitX=-0.256;exitY=0.667;exitDx=0;exitDy=0;exitPerimeter=0;" edge="1" parent="1" source="2DOLUK-kXM4U_X514kG_-58" target="2DOLUK-kXM4U_X514kG_-1">
          <mxGeometry relative="1" as="geometry">
            <mxPoint x="-360" y="500" as="sourcePoint" />
            <mxPoint x="-510" y="500" as="targetPoint" />
          </mxGeometry>
        </mxCell>
        <mxCell id="2DOLUK-kXM4U_X514kG_-27" value="Dữ liệu không tồn tại" style="html=1;verticalAlign=bottom;endArrow=open;dashed=1;endSize=8;rounded=0;exitX=-0.009;exitY=0.252;exitDx=0;exitDy=0;exitPerimeter=0;entryX=0.943;entryY=0.1;entryDx=0;entryDy=0;entryPerimeter=0;" edge="1" parent="1" source="2DOLUK-kXM4U_X514kG_-26" target="2DOLUK-kXM4U_X514kG_-28">
          <mxGeometry relative="1" as="geometry">
            <mxPoint x="-230" y="720" as="sourcePoint" />
            <mxPoint x="-300" y="720" as="targetPoint" />
          </mxGeometry>
        </mxCell>
        <mxCell id="2DOLUK-kXM4U_X514kG_-30" value="&lt;span style=&quot;color: rgb(0, 0, 0); font-family: Helvetica; font-size: 11px; font-style: normal; font-variant-ligatures: normal; font-variant-caps: normal; font-weight: 400; letter-spacing: normal; orphans: 2; text-indent: 0px; text-transform: none; widows: 2; word-spacing: 0px; -webkit-text-stroke-width: 0px; background-color: rgb(255, 255, 255); text-decoration-thickness: initial; text-decoration-style: initial; text-decoration-color: initial; float: none; display: inline !important;&quot;&gt;Yêu cầu nhập lại&lt;/span&gt;" style="text;whiteSpace=wrap;html=1;align=center;verticalAlign=top;" vertex="1" parent="1">
          <mxGeometry x="-630" y="740" width="120" height="30" as="geometry" />
        </mxCell>
        <mxCell id="2DOLUK-kXM4U_X514kG_-32" value="Dữ liệu tồn tại" style="html=1;verticalAlign=bottom;endArrow=open;dashed=1;endSize=8;rounded=0;exitX=-0.126;exitY=0.109;exitDx=0;exitDy=0;exitPerimeter=0;" edge="1" parent="1" source="2DOLUK-kXM4U_X514kG_-31">
          <mxGeometry relative="1" as="geometry">
            <mxPoint x="-230" y="840" as="sourcePoint" />
            <mxPoint x="-500" y="840" as="targetPoint" />
          </mxGeometry>
        </mxCell>
        <mxCell id="2DOLUK-kXM4U_X514kG_-41" value="Trả dữ liệu" style="html=1;verticalAlign=bottom;endArrow=open;dashed=1;endSize=8;rounded=0;" edge="1" parent="1" target="2DOLUK-kXM4U_X514kG_-1">
          <mxGeometry relative="1" as="geometry">
            <mxPoint x="-510" y="880" as="sourcePoint" />
            <mxPoint x="-590" y="880" as="targetPoint" />
          </mxGeometry>
        </mxCell>
        <mxCell id="2DOLUK-kXM4U_X514kG_-52" value="false" style="shape=umlFrame;whiteSpace=wrap;html=1;" vertex="1" parent="1">
          <mxGeometry x="-720" y="670" width="600" height="140" as="geometry" />
        </mxCell>
        <mxCell id="2DOLUK-kXM4U_X514kG_-56" value="Trả về trang profile" style="html=1;verticalAlign=bottom;endArrow=open;dashed=1;endSize=8;rounded=0;" edge="1" parent="1" target="2DOLUK-kXM4U_X514kG_-1">
          <mxGeometry relative="1" as="geometry">
            <mxPoint x="-510" y="940" as="sourcePoint" />
            <mxPoint x="-590" y="940" as="targetPoint" />
          </mxGeometry>
        </mxCell>
        <mxCell id="2DOLUK-kXM4U_X514kG_-22" value="Gửi thông tin tìm kiếm" style="html=1;verticalAlign=bottom;endArrow=block;rounded=0;exitX=1.118;exitY=0.294;exitDx=0;exitDy=0;exitPerimeter=0;entryX=-0.06;entryY=0.302;entryDx=0;entryDy=0;entryPerimeter=0;" edge="1" parent="1" source="2DOLUK-kXM4U_X514kG_-59" target="2DOLUK-kXM4U_X514kG_-21">
          <mxGeometry width="80" relative="1" as="geometry">
            <mxPoint x="-350" y="540" as="sourcePoint" />
            <mxPoint x="-230" y="589" as="targetPoint" />
          </mxGeometry>
        </mxCell>
        <mxCell id="2DOLUK-kXM4U_X514kG_-63" value="Tương tác&amp;nbsp;" style="html=1;verticalAlign=bottom;endArrow=block;rounded=0;" edge="1" parent="1">
          <mxGeometry width="80" relative="1" as="geometry">
            <mxPoint x="-630" y="970" as="sourcePoint" />
            <mxPoint x="-510" y="970" as="targetPoint" />
          </mxGeometry>
        </mxCell>
      </root>
    </mxGraphModel>
  </diagram>
  <diagram id="qSBkDxyMVbQX05LFThkz" name="Trang-3">
    <mxGraphModel dx="1113" dy="693" grid="1" gridSize="10" guides="1" tooltips="1" connect="1" arrows="1" fold="1" page="1" pageScale="1" pageWidth="827" pageHeight="1169" math="0" shadow="0">
      <root>
        <mxCell id="0" />
        <mxCell id="1" parent="0" />
        <mxCell id="Hkj_F6AjY6Urx73o0ueu-1" value="Actor" style="shape=umlActor;verticalLabelPosition=bottom;verticalAlign=top;html=1;fillColor=#3399FF;" vertex="1" parent="1">
          <mxGeometry x="320" y="80" width="30" height="60" as="geometry" />
        </mxCell>
        <mxCell id="Hkj_F6AjY6Urx73o0ueu-2" value="Giao diện input search" style="shape=umlBoundary;whiteSpace=wrap;html=1;fillColor=#3399FF;" vertex="1" parent="1">
          <mxGeometry x="425" y="240" width="100" height="80" as="geometry" />
        </mxCell>
        <mxCell id="Hkj_F6AjY6Urx73o0ueu-3" value="Giao diện Space" style="shape=umlBoundary;whiteSpace=wrap;html=1;fillColor=#3399FF;" vertex="1" parent="1">
          <mxGeometry x="140" y="240" width="100" height="80" as="geometry" />
        </mxCell>
        <mxCell id="Hkj_F6AjY6Urx73o0ueu-4" value="" style="endArrow=none;html=1;rounded=0;" edge="1" parent="1">
          <mxGeometry width="50" height="50" relative="1" as="geometry">
            <mxPoint x="200" y="240" as="sourcePoint" />
            <mxPoint x="310" y="130" as="targetPoint" />
            <Array as="points">
              <mxPoint x="200" y="130" />
            </Array>
          </mxGeometry>
        </mxCell>
        <mxCell id="Hkj_F6AjY6Urx73o0ueu-5" value="1. Vào hệ thống" style="text;html=1;align=center;verticalAlign=middle;resizable=0;points=[];autosize=1;strokeColor=none;fillColor=none;" vertex="1" parent="1">
          <mxGeometry x="200" y="100" width="110" height="30" as="geometry" />
        </mxCell>
        <mxCell id="Hkj_F6AjY6Urx73o0ueu-6" value="" style="endArrow=classic;html=1;rounded=0;" edge="1" parent="1">
          <mxGeometry width="50" height="50" relative="1" as="geometry">
            <mxPoint x="270" y="140" as="sourcePoint" />
            <mxPoint x="250" y="140" as="targetPoint" />
          </mxGeometry>
        </mxCell>
        <mxCell id="Hkj_F6AjY6Urx73o0ueu-7" value="" style="endArrow=none;html=1;rounded=0;exitX=0.81;exitY=0.088;exitDx=0;exitDy=0;exitPerimeter=0;" edge="1" parent="1" source="Hkj_F6AjY6Urx73o0ueu-3">
          <mxGeometry width="50" height="50" relative="1" as="geometry">
            <mxPoint x="400" y="270" as="sourcePoint" />
            <mxPoint x="310" y="150" as="targetPoint" />
          </mxGeometry>
        </mxCell>
        <mxCell id="Hkj_F6AjY6Urx73o0ueu-8" value="2. Hiển thị&lt;br&gt;10. Hiển thị" style="text;html=1;align=center;verticalAlign=middle;resizable=0;points=[];autosize=1;strokeColor=none;fillColor=none;" vertex="1" parent="1">
          <mxGeometry x="200" y="155" width="80" height="40" as="geometry" />
        </mxCell>
        <mxCell id="Hkj_F6AjY6Urx73o0ueu-9" value="" style="endArrow=classic;html=1;rounded=0;" edge="1" parent="1">
          <mxGeometry width="50" height="50" relative="1" as="geometry">
            <mxPoint x="240" y="210" as="sourcePoint" />
            <mxPoint x="260" y="190" as="targetPoint" />
          </mxGeometry>
        </mxCell>
        <mxCell id="Hkj_F6AjY6Urx73o0ueu-10" value="" style="endArrow=classic;html=1;rounded=0;" edge="1" parent="1">
          <mxGeometry width="50" height="50" relative="1" as="geometry">
            <mxPoint x="270" y="210" as="sourcePoint" />
            <mxPoint x="250" y="230" as="targetPoint" />
          </mxGeometry>
        </mxCell>
        <mxCell id="Hkj_F6AjY6Urx73o0ueu-11" value="3. Click input&lt;br&gt;&amp;nbsp;search" style="text;html=1;align=center;verticalAlign=middle;resizable=0;points=[];autosize=1;strokeColor=none;fillColor=none;" vertex="1" parent="1">
          <mxGeometry x="260" y="210" width="90" height="40" as="geometry" />
        </mxCell>
        <mxCell id="Hkj_F6AjY6Urx73o0ueu-12" value="" style="endArrow=none;html=1;rounded=0;exitX=1;exitY=0.5;exitDx=0;exitDy=0;exitPerimeter=0;entryX=0;entryY=0.5;entryDx=0;entryDy=0;entryPerimeter=0;" edge="1" parent="1" source="Hkj_F6AjY6Urx73o0ueu-3" target="Hkj_F6AjY6Urx73o0ueu-2">
          <mxGeometry width="50" height="50" relative="1" as="geometry">
            <mxPoint x="400" y="270" as="sourcePoint" />
            <mxPoint x="450" y="220" as="targetPoint" />
          </mxGeometry>
        </mxCell>
        <mxCell id="Hkj_F6AjY6Urx73o0ueu-13" value="4. gọi" style="text;html=1;align=center;verticalAlign=middle;resizable=0;points=[];autosize=1;strokeColor=none;fillColor=none;" vertex="1" parent="1">
          <mxGeometry x="315" y="255" width="50" height="30" as="geometry" />
        </mxCell>
        <mxCell id="Hkj_F6AjY6Urx73o0ueu-14" value="" style="endArrow=classic;html=1;rounded=0;" edge="1" parent="1">
          <mxGeometry width="50" height="50" relative="1" as="geometry">
            <mxPoint x="320" y="290" as="sourcePoint" />
            <mxPoint x="340" y="290" as="targetPoint" />
          </mxGeometry>
        </mxCell>
        <mxCell id="Hkj_F6AjY6Urx73o0ueu-15" value="" style="endArrow=none;html=1;rounded=0;exitX=0.58;exitY=0.025;exitDx=0;exitDy=0;exitPerimeter=0;" edge="1" parent="1" source="Hkj_F6AjY6Urx73o0ueu-2">
          <mxGeometry width="50" height="50" relative="1" as="geometry">
            <mxPoint x="400" y="270" as="sourcePoint" />
            <mxPoint x="360" y="150" as="targetPoint" />
          </mxGeometry>
        </mxCell>
        <mxCell id="Hkj_F6AjY6Urx73o0ueu-16" value="" style="endArrow=classic;html=1;rounded=0;" edge="1" parent="1">
          <mxGeometry width="50" height="50" relative="1" as="geometry">
            <mxPoint x="440" y="220" as="sourcePoint" />
            <mxPoint x="410" y="200" as="targetPoint" />
          </mxGeometry>
        </mxCell>
        <mxCell id="Hkj_F6AjY6Urx73o0ueu-17" value="5. Hiển thị" style="text;html=1;align=center;verticalAlign=middle;resizable=0;points=[];autosize=1;strokeColor=none;fillColor=none;" vertex="1" parent="1">
          <mxGeometry x="360" y="210" width="80" height="30" as="geometry" />
        </mxCell>
        <mxCell id="Hkj_F6AjY6Urx73o0ueu-18" value="" style="endArrow=classic;html=1;rounded=0;" edge="1" parent="1">
          <mxGeometry width="50" height="50" relative="1" as="geometry">
            <mxPoint x="430" y="190" as="sourcePoint" />
            <mxPoint x="450" y="210" as="targetPoint" />
          </mxGeometry>
        </mxCell>
        <mxCell id="Hkj_F6AjY6Urx73o0ueu-19" value="6. Nhập dữ liệu&lt;br&gt;&amp;nbsp;cần tìm kiếm" style="text;html=1;align=center;verticalAlign=middle;resizable=0;points=[];autosize=1;strokeColor=none;fillColor=none;" vertex="1" parent="1">
          <mxGeometry x="425" y="160" width="110" height="40" as="geometry" />
        </mxCell>
        <mxCell id="Hkj_F6AjY6Urx73o0ueu-20" value="" style="endArrow=none;html=1;rounded=0;" edge="1" parent="1">
          <mxGeometry width="50" height="50" relative="1" as="geometry">
            <mxPoint x="500" y="350" as="sourcePoint" />
            <mxPoint x="540" y="390" as="targetPoint" />
            <Array as="points">
              <mxPoint x="540" y="350" />
            </Array>
          </mxGeometry>
        </mxCell>
        <mxCell id="Hkj_F6AjY6Urx73o0ueu-21" value="" style="endArrow=none;html=1;rounded=0;" edge="1" parent="1">
          <mxGeometry width="50" height="50" relative="1" as="geometry">
            <mxPoint x="500" y="360" as="sourcePoint" />
            <mxPoint x="540" y="390" as="targetPoint" />
            <Array as="points">
              <mxPoint x="500" y="390" />
            </Array>
          </mxGeometry>
        </mxCell>
        <mxCell id="Hkj_F6AjY6Urx73o0ueu-22" value="" style="endArrow=classic;html=1;rounded=0;" edge="1" parent="1">
          <mxGeometry width="50" height="50" relative="1" as="geometry">
            <mxPoint x="530" y="360" as="sourcePoint" />
            <mxPoint x="530" y="380" as="targetPoint" />
          </mxGeometry>
        </mxCell>
        <mxCell id="Hkj_F6AjY6Urx73o0ueu-23" value="7. Kiểm tra thông tin" style="text;html=1;align=center;verticalAlign=middle;resizable=0;points=[];autosize=1;strokeColor=none;fillColor=none;" vertex="1" parent="1">
          <mxGeometry x="540" y="350" width="130" height="30" as="geometry" />
        </mxCell>
        <mxCell id="Hkj_F6AjY6Urx73o0ueu-24" value="8. Lưu thông tin&amp;nbsp;" style="text;html=1;align=center;verticalAlign=middle;resizable=0;points=[];autosize=1;strokeColor=none;fillColor=none;" vertex="1" parent="1">
          <mxGeometry x="540" y="380" width="110" height="30" as="geometry" />
        </mxCell>
        <mxCell id="Hkj_F6AjY6Urx73o0ueu-25" value="" style="endArrow=none;html=1;rounded=0;exitX=0.56;exitY=1.038;exitDx=0;exitDy=0;exitPerimeter=0;entryX=0.6;entryY=1;entryDx=0;entryDy=0;entryPerimeter=0;" edge="1" parent="1" source="Hkj_F6AjY6Urx73o0ueu-2" target="Hkj_F6AjY6Urx73o0ueu-3">
          <mxGeometry width="50" height="50" relative="1" as="geometry">
            <mxPoint x="400" y="190" as="sourcePoint" />
            <mxPoint x="200" y="330" as="targetPoint" />
            <Array as="points">
              <mxPoint x="480" y="360" />
              <mxPoint x="200" y="360" />
            </Array>
          </mxGeometry>
        </mxCell>
        <mxCell id="Hkj_F6AjY6Urx73o0ueu-26" value="9. Hiển thị danh sách kết quả" style="text;html=1;align=center;verticalAlign=middle;resizable=0;points=[];autosize=1;strokeColor=none;fillColor=none;" vertex="1" parent="1">
          <mxGeometry x="250" y="335" width="180" height="30" as="geometry" />
        </mxCell>
        <mxCell id="Hkj_F6AjY6Urx73o0ueu-27" value="" style="endArrow=classic;html=1;rounded=0;exitX=0.556;exitY=1.167;exitDx=0;exitDy=0;exitPerimeter=0;entryX=0.411;entryY=1.167;entryDx=0;entryDy=0;entryPerimeter=0;" edge="1" parent="1" source="Hkj_F6AjY6Urx73o0ueu-26" target="Hkj_F6AjY6Urx73o0ueu-26">
          <mxGeometry width="50" height="50" relative="1" as="geometry">
            <mxPoint x="400" y="190" as="sourcePoint" />
            <mxPoint x="450" y="140" as="targetPoint" />
          </mxGeometry>
        </mxCell>
        <mxCell id="Hkj_F6AjY6Urx73o0ueu-29" value="Giao diện profile" style="shape=umlBoundary;whiteSpace=wrap;html=1;fillColor=#3399FF;" vertex="1" parent="1">
          <mxGeometry x="600" y="240" width="100" height="80" as="geometry" />
        </mxCell>
        <mxCell id="Hkj_F6AjY6Urx73o0ueu-30" value="" style="endArrow=none;html=1;rounded=0;exitX=0.596;exitY=-0.025;exitDx=0;exitDy=0;exitPerimeter=0;" edge="1" parent="1" source="Hkj_F6AjY6Urx73o0ueu-29">
          <mxGeometry width="50" height="50" relative="1" as="geometry">
            <mxPoint x="209.9999999999999" y="250" as="sourcePoint" />
            <mxPoint x="360" y="130" as="targetPoint" />
            <Array as="points">
              <mxPoint x="660" y="130" />
            </Array>
          </mxGeometry>
        </mxCell>
        <mxCell id="Hkj_F6AjY6Urx73o0ueu-31" value="11. Chọn account" style="text;html=1;align=center;verticalAlign=middle;resizable=0;points=[];autosize=1;strokeColor=none;fillColor=none;" vertex="1" parent="1">
          <mxGeometry x="470" y="100" width="120" height="30" as="geometry" />
        </mxCell>
        <mxCell id="Hkj_F6AjY6Urx73o0ueu-33" value="" style="endArrow=classic;html=1;rounded=0;labelBackgroundColor=none;" edge="1" parent="1">
          <mxGeometry width="50" height="50" relative="1" as="geometry">
            <mxPoint x="510" y="140" as="sourcePoint" />
            <mxPoint x="540" y="140" as="targetPoint" />
          </mxGeometry>
        </mxCell>
        <mxCell id="Hkj_F6AjY6Urx73o0ueu-34" value="" style="endArrow=none;html=1;rounded=0;exitX=0.997;exitY=0.498;exitDx=0;exitDy=0;exitPerimeter=0;" edge="1" parent="1" source="Hkj_F6AjY6Urx73o0ueu-2">
          <mxGeometry width="50" height="50" relative="1" as="geometry">
            <mxPoint x="530" y="280" as="sourcePoint" />
            <mxPoint x="600" y="280" as="targetPoint" />
          </mxGeometry>
        </mxCell>
        <mxCell id="Hkj_F6AjY6Urx73o0ueu-37" value="" style="endArrow=classic;html=1;rounded=0;labelBackgroundColor=none;" edge="1" parent="1">
          <mxGeometry width="50" height="50" relative="1" as="geometry">
            <mxPoint x="670" y="210" as="sourcePoint" />
            <mxPoint x="670" y="170" as="targetPoint" />
          </mxGeometry>
        </mxCell>
        <mxCell id="Hkj_F6AjY6Urx73o0ueu-38" value="12. Hiển thị" style="text;html=1;align=center;verticalAlign=middle;resizable=0;points=[];autosize=1;strokeColor=none;fillColor=none;" vertex="1" parent="1">
          <mxGeometry x="670" y="180" width="80" height="30" as="geometry" />
        </mxCell>
      </root>
    </mxGraphModel>
  </diagram>
</mxfile>
